<svg width="64" height="64" viewBox="0 0 64 64" fill="none" xmlns="http://www.w3.org/2000/svg" role="img" aria-labelledby="title desc">
  <title id="title">Learning First icon</title>
  <desc id="desc">Open book with spark for learning-first approach</desc>
  <rect x="1" y="1" width="62" height="62" rx="16" stroke="#C855F6" stroke-width="2"/>
  <path d="M14 20H27C30.5 20 33 22.5 33 26V44H20C16.7 44 14 41.3 14 38V20Z" stroke="#C855F6" stroke-width="2.4" stroke-linejoin="round"/>
  <path d="M50 20H37C33.5 20 31 22.5 31 26V44H44C47.3 44 50 41.3 50 38V20Z" stroke="#C855F6" stroke-width="2.4" stroke-linejoin="round"/>
  <path d="M32 16L33.6 19.6L37.2 21.2L33.6 22.8L32 26.4L30.4 22.8L26.8 21.2L30.4 19.6L32 16Z" fill="#C855F6"/>
</svg>
